<svg width="37" height="37" viewBox="0 0 37 37" fill="none" xmlns="http://www.w3.org/2000/svg">
<g clip-path="url(#clip0_1_22)">
<path d="M36.5288 18.8235C36.5288 8.88248 28.4537 0.82354 18.4927 0.82354C8.53165 0.82354 0.456543 8.88248 0.456543 18.8235C0.456543 27.8078 7.05213 35.2546 15.6745 36.6049V24.0267H11.095V18.8235H15.6745V14.8579C15.6745 10.3467 18.3673 7.85479 22.4871 7.85479C24.4604 7.85479 26.5244 8.20635 26.5244 8.20635V12.636H24.2501C22.0096 12.636 21.3108 14.0236 21.3108 15.4471V18.8235H26.313L25.5134 24.0267H21.3108V36.6049C29.9332 35.2546 36.5288 27.8079 36.5288 18.8235Z" fill="#1877F2"/>
<path d="M25.5134 24.0267L26.313 18.8235H21.3108V15.4471C21.3108 14.0234 22.0096 12.636 24.2501 12.636H26.5244V8.20635C26.5244 8.20635 24.4604 7.85479 22.487 7.85479C18.3673 7.85479 15.6745 10.3467 15.6745 14.8579V18.8235H11.095V24.0267H15.6745V36.6049C16.6068 36.7507 17.549 36.8238 18.4927 36.8235C19.4363 36.8238 20.3785 36.7507 21.3108 36.6049V24.0267H25.5134Z" fill="white"/>
</g>
<defs>
<clipPath id="clip0_1_22">
<rect width="36.0722" height="36" fill="white" transform="translate(0.456543 0.82354)"/>
</clipPath>
</defs>
</svg>
