<svg width="37" height="37" viewBox="0 0 37 37" fill="none" xmlns="http://www.w3.org/2000/svg">
<path d="M18.5683 3.82354C16.5945 3.82354 14.64 4.21153 12.8165 4.96535C10.993 5.71917 9.33607 6.82406 7.9404 8.21694C5.12171 11.03 3.53819 14.8453 3.53819 18.8235C3.53819 25.4535 7.85182 31.0785 13.8188 33.0735C14.5703 33.1935 14.8108 32.7285 14.8108 32.3235V29.7885C10.6474 30.6885 9.76064 27.7785 9.76064 27.7785C9.06926 26.0385 8.0923 25.5735 8.0923 25.5735C6.72457 24.6435 8.19751 24.6735 8.19751 24.6735C9.70052 24.7785 10.4971 26.2185 10.4971 26.2185C11.8047 28.4985 14.0142 27.8235 14.8709 27.4635C15.0061 26.4885 15.3969 25.8285 15.8178 25.4535C12.4811 25.0785 8.97908 23.7885 8.97908 18.0735C8.97908 16.4085 9.55022 15.0735 10.5272 14.0085C10.3769 13.6335 9.85083 12.0735 10.6775 10.0485C10.6775 10.0485 11.94 9.64354 14.8108 11.5785C15.9981 11.2485 17.2907 11.0835 18.5683 11.0835C19.8458 11.0835 21.1384 11.2485 22.3258 11.5785C25.1966 9.64354 26.4591 10.0485 26.4591 10.0485C27.2857 12.0735 26.7597 13.6335 26.6094 14.0085C27.5863 15.0735 28.1575 16.4085 28.1575 18.0735C28.1575 23.8035 24.6404 25.0635 21.2887 25.4385C21.8298 25.9035 22.3258 26.8185 22.3258 28.2135V32.3235C22.3258 32.7285 22.5663 33.2085 23.3328 33.0735C29.2998 31.0635 33.5984 25.4535 33.5984 18.8235C33.5984 16.8537 33.2096 14.9032 32.4543 13.0833C31.6989 11.2634 30.5918 9.60982 29.1962 8.21694C27.8005 6.82406 26.1436 5.71917 24.32 4.96535C22.4965 4.21153 20.5421 3.82354 18.5683 3.82354Z" fill="black"/>
</svg>
