<svg width="37" height="37" viewBox="0 0 37 37" fill="none" xmlns="http://www.w3.org/2000/svg">
<g clip-path="url(#clip0_1_10)">
<path d="M13.0605 2.00757C9.45629 3.25539 6.34805 5.62379 4.1923 8.76489C2.03656 11.906 0.946932 15.6542 1.08347 19.459C1.22002 23.2639 2.57553 26.9247 4.95091 29.9038C7.32629 32.883 10.5963 35.0234 14.2807 36.0107C17.2677 36.7799 20.3972 36.8137 23.4002 36.1091C26.1206 35.4993 28.6357 34.1949 30.6992 32.3235C32.8469 30.3164 34.4057 27.763 35.2082 24.9379C36.0802 21.8657 36.2354 18.6349 35.662 15.4935H18.8884V22.4376H28.6025C28.4084 23.5451 27.9923 24.6022 27.3793 25.5455C26.7663 26.4888 25.9688 27.299 25.0348 27.9276C23.8487 28.711 22.5115 29.2379 21.1091 29.4745C19.7027 29.7355 18.2601 29.7355 16.8537 29.4745C15.4281 29.1806 14.0796 28.5935 12.8942 27.7504C10.9895 26.4049 9.55942 24.4933 8.80788 22.2885C8.04386 20.0424 8.04386 17.6074 8.80788 15.3613C9.34284 13.7869 10.2272 12.3535 11.3949 11.1679C12.7313 9.78624 14.4231 8.79863 16.2849 8.31341C18.1466 7.8282 20.1063 7.86413 21.9489 8.41726C23.3884 8.85805 24.7047 9.62854 25.7928 10.6673C26.8882 9.57976 27.9816 8.48945 29.0732 7.39632C29.6368 6.80851 30.2511 6.24882 30.8063 5.64695C29.1451 4.10434 27.1953 2.90393 25.0686 2.11445C21.1956 0.710983 16.9579 0.673266 13.0605 2.00757Z" fill="white"/>
<path d="M13.0605 2.00758C16.9576 0.67236 21.1953 0.709084 25.0686 2.11164C27.1957 2.90648 29.1446 4.11268 30.8035 5.66101C30.2399 6.26289 29.6452 6.82539 29.0703 7.41039C27.9769 8.49976 26.8844 9.58539 25.7928 10.6673C24.7047 9.62855 23.3884 8.85805 21.9489 8.41726C20.1069 7.86219 18.1473 7.82418 16.285 8.30741C14.4228 8.79064 12.7299 9.77644 11.3921 11.1566C10.2244 12.3422 9.34002 13.7757 8.80507 15.3501L2.96306 10.836C5.05414 6.69759 8.67472 3.53202 13.0605 2.00758Z" fill="#E33629"/>
<path d="M1.41308 15.3079C1.72685 13.7548 2.24817 12.2507 2.96306 10.836L8.80507 15.3614C8.04104 17.6075 8.04104 20.0424 8.80507 22.2885C6.85867 23.7885 4.91133 25.296 2.96306 26.811C1.17396 23.2569 0.628316 19.2075 1.41308 15.3079Z" fill="#F8BD00"/>
<path d="M18.8884 15.4907H35.662C36.2354 18.6321 36.0802 21.8629 35.2082 24.9351C34.4057 27.7602 32.8469 30.3136 30.6992 32.3207C28.8139 30.8526 26.9201 29.3957 25.0348 27.9276C25.9695 27.2984 26.7673 26.4873 27.3803 25.543C27.9934 24.5986 28.4091 23.5405 28.6025 22.432H18.8884C18.8856 20.1201 18.8884 17.8054 18.8884 15.4907Z" fill="#587DBD"/>
<path d="M2.96024 26.811C4.90851 25.311 6.85585 23.8035 8.80225 22.2885C9.55528 24.4941 10.9875 26.4057 12.8942 27.7504C14.0833 28.5896 15.4347 29.172 16.8621 29.4604C18.2685 29.7215 19.7111 29.7215 21.1175 29.4604C22.5199 29.2238 23.8572 28.6969 25.0432 27.9135C26.9285 29.3817 28.8223 30.8385 30.7077 32.3067C28.6445 34.179 26.1294 35.4845 23.4087 36.0951C20.4057 36.7997 17.2762 36.7659 14.2892 35.9967C11.9267 35.3672 9.72005 34.2574 7.80744 32.737C5.78325 31.1328 4.12987 29.1114 2.96024 26.811Z" fill="#319F43"/>
</g>
<defs>
<clipPath id="clip0_1_10">
<rect width="36.0722" height="36" fill="white" transform="translate(0.494362 0.82354)"/>
</clipPath>
</defs>
</svg>
