<svg width="35" height="35" viewBox="0 0 35 35" fill="none" xmlns="http://www.w3.org/2000/svg">
<path d="M27.304 16.4706H7.49962C5.9371 16.4706 4.67043 17.7347 4.67043 19.2941V29.1765C4.67043 30.7359 5.9371 32 7.49962 32H27.304C28.8665 32 30.1332 30.7359 30.1332 29.1765V19.2941C30.1332 17.7347 28.8665 16.4706 27.304 16.4706Z" stroke="black" stroke-width="2" stroke-linecap="round" stroke-linejoin="round"/>
<path d="M10.3288 16.4706V10.8235C10.3288 8.95143 11.074 7.15599 12.4004 5.83221C13.7269 4.50842 15.5259 3.76472 17.4018 3.76472C19.2777 3.76472 21.0767 4.50842 22.4032 5.83221C23.7296 7.15599 24.4748 8.95143 24.4748 10.8235V16.4706" stroke="black" stroke-width="2" stroke-linecap="round" stroke-linejoin="round"/>
</svg>
